<?xml version="1.0" encoding="utf-8"?>
<!-- Generator: Adobe Illustrator 16.0.0, SVG Export Plug-In . SVG Version: 6.00 Build 0)  -->
<!DOCTYPE svg PUBLIC "-//W3C//DTD SVG 1.1//EN" "http://www.w3.org/Graphics/SVG/1.1/DTD/svg11.dtd">
<svg version="1.1" id="Layer_1" xmlns="http://www.w3.org/2000/svg" xmlns:xlink="http://www.w3.org/1999/xlink" x="0px" y="0px"
	 width="200px" height="266.51px" viewBox="0 0 200 266.51" enable-background="new 0 0 200 266.51" xml:space="preserve">
<path fill="#3FA7DE" d="M170.699,29.29c-39.053-39.053-102.369-39.053-141.421,0S1.531,198.457,1.531,198.457
	s130.115,11.307,169.168-27.746S209.752,68.342,170.699,29.29z M82.413,169.789c-8.236,2.191-16.559-2.643-20.893-9.521
	c-5.474-8.83-12.967-16.326-21.797-21.799c-6.882-4.334-11.711-12.656-9.522-20.892c3.752-10.512,17.56-9.471,25.313-4.616
	c12.759,7.899,23.616,18.756,31.516,31.516C91.885,152.23,92.923,166.035,82.413,169.789z M121.666,151.787
	c-8.232,2.293-16.529-2.582-20.338-9.848C90.5,123.005,76.986,109.49,58.051,98.663c-7.264-3.812-12.141-12.105-9.848-20.339
	c3.589-9.663,15.51-10.548,23.581-6.334c24.502,13.739,42.478,31.716,56.217,56.218C132.213,136.279,131.33,148.197,121.666,151.787
	z M161.239,133.232c-8.227,2.313-16.496-2.572-20.015-10.025c-14.724-28.955-35.488-49.719-64.442-64.441
	c-7.452-3.52-12.339-11.789-10.026-20.016c3.354-9.299,14.509-11,22.625-7.213c35.367,17.648,61.424,43.703,79.07,79.07
	C172.238,118.725,170.537,129.877,161.239,133.232z"/>
<g>
	<path fill="#8EC73F" d="M137.779,229.08h-2.799v7.969h2.775c1.803,0,3.041-0.392,3.715-1.176c0.611-0.705,0.916-1.66,0.916-2.867
		c0-1.191-0.348-2.143-1.045-2.855C140.643,229.437,139.455,229.08,137.779,229.08z"/>
	<polygon fill="#8EC73F" points="102.848,242.463 109.785,242.463 106.34,232.268 	"/>
	<path fill="#8EC73F" d="M180,206.131H20c-11.046,0-20,8.953-20,20v20c0,11.045,8.954,20,20,20h160c11.046,0,20-8.955,20-20v-20
		C200,215.084,191.046,206.131,180,206.131z M41.934,240.822c0,1.922-0.156,3.563-0.469,4.922c-0.484,2.109-1.641,4.031-3.469,5.766
		c-2.594,2.453-6.063,3.68-10.406,3.68c-4.422,0-7.875-1.25-10.359-3.75c-1.313-1.313-2.211-2.961-2.695-4.945
		c-0.344-1.406-0.516-3.297-0.516-5.672v-18.445h8.32v17.305c0,1.389,0.023,2.428,0.07,3.114c0.156,2.17,1.148,3.685,2.977,4.542
		c0.75,0.359,1.578,0.539,2.484,0.539c2.031,0,3.563-0.71,4.594-2.131c0.766-1.046,1.148-3.067,1.148-6.064v-17.305h8.32V240.822z
		 M78.989,254.369l-2.365-18.422l-7.727,18.422h-3.301l-7.376-18.422l-2.716,18.422h-8.297l5.438-31.992h8.227l6.47,17.063
		l6.843-17.063h8.297l4.828,31.992H78.989z M114.098,254.369l-2.063-5.578h-11.484l-2.203,5.578h-8.789l12.304-31.992h9.07
		l12.047,31.992H114.098z M148.973,240.076c-1.766,2.451-4.695,3.676-8.789,3.676h-5.203v10.617h-8.32v-31.992h13.242
		c3.766,0,6.625,1.101,8.578,3.301c1.688,1.889,2.531,4.301,2.531,7.234C151.012,235.8,150.332,238.188,148.973,240.076z
		 M170.465,254.368c-1.656,0.579-3.438,0.868-5.344,0.868c-4,0-7.711-1.211-11.133-3.633l3.563-6.703
		c2.506,2.266,4.955,3.398,7.352,3.398c1.08,0,1.996-0.252,2.748-0.758c0.877-0.568,1.314-1.373,1.314-2.414
		c0-0.947-0.484-1.736-1.455-2.368c-0.721-0.474-1.934-0.955-3.639-1.444c-2.066-0.608-3.365-1.029-3.898-1.264
		c-0.844-0.359-1.564-0.78-2.16-1.265c-1.705-1.404-2.559-3.526-2.559-6.367c0-2.966,0.883-5.423,2.648-7.374
		c2.063-2.294,4.813-3.441,8.25-3.441c3.453,0,6.836,0.867,10.148,2.602l-3.328,6.469c-1.816-1.422-3.65-2.133-5.498-2.133
		c-0.893,0-1.691,0.228-2.396,0.682c-0.799,0.519-1.199,1.209-1.199,2.07c0,0.848,0.525,1.576,1.574,2.188
		c0.469,0.283,1.877,0.77,4.225,1.459c2.943,0.86,5.041,2.081,6.293,3.66c1.08,1.346,1.619,3.074,1.619,5.186
		C177.59,249.198,175.215,252.726,170.465,254.368z M188.303,231.17c-0.907,0.779-1.949,1.168-3.126,1.168
		c-1.496,0-2.731-0.564-3.708-1.695c-0.789-0.916-1.184-1.978-1.184-3.186c0-1.221,0.393-2.283,1.178-3.186
		c0.975-1.125,2.213-1.688,3.714-1.688c1.177,0,2.216,0.387,3.12,1.162c1.135,0.975,1.703,2.212,1.703,3.711
		C190,228.961,189.434,230.199,188.303,231.17z"/>
	<path fill="#8EC73F" d="M185.115,223.479c-0.924,0-1.748,0.314-2.473,0.942c-0.915,0.792-1.373,1.804-1.373,3.036
		c0,1.233,0.461,2.248,1.381,3.044c0.723,0.628,1.563,0.942,2.52,0.942c0.938,0,1.77-0.318,2.492-0.956
		c0.902-0.796,1.354-1.806,1.354-3.03c0-0.991-0.311-1.854-0.93-2.586C187.299,223.943,186.309,223.479,185.115,223.479z
		 M186.848,226.842l-0.164-0.184c-0.334-0.374-0.738-0.561-1.213-0.561c-0.42,0-0.762,0.127-1.024,0.383
		c-0.263,0.255-0.394,0.592-0.394,1.012c0,0.396,0.133,0.722,0.4,0.977c0.268,0.256,0.6,0.383,0.997,0.383
		c0.448,0,0.861-0.18,1.24-0.539l0.157-0.15v1.949l-0.068,0.02c-0.592,0.178-1.043,0.266-1.354,0.266
		c-0.916,0-1.692-0.322-2.33-0.968c-0.511-0.519-0.766-1.167-0.766-1.944c0-1.113,0.498-1.952,1.496-2.516
		c0.492-0.277,1.017-0.416,1.572-0.416c0.365,0,0.828,0.093,1.389,0.279l0.061,0.02V226.842z"/>
</g>
</svg>
