<?xml version="1.0" encoding="utf-8"?>
<!-- Generator: Adobe Illustrator 16.0.0, SVG Export Plug-In . SVG Version: 6.00 Build 0)  -->
<!DOCTYPE svg PUBLIC "-//W3C//DTD SVG 1.1//EN" "http://www.w3.org/Graphics/SVG/1.1/DTD/svg11.dtd">
<svg version="1.1" id="Layer_1" xmlns="http://www.w3.org/2000/svg" xmlns:xlink="http://www.w3.org/1999/xlink" x="0px" y="0px"
	 width="199.977px" height="199.978px" viewBox="0 0 199.977 199.978" enable-background="new 0 0 199.977 199.978"
	 xml:space="preserve">
<path fill="#3FA7DE" d="M170.688,29.29c-39.053-39.053-102.369-39.053-141.421,0S1.52,198.457,1.52,198.457
	s130.115,11.307,169.168-27.746S209.741,68.342,170.688,29.29z M82.402,169.789c-8.236,2.191-16.559-2.643-20.893-9.521
	c-5.474-8.83-12.967-16.326-21.797-21.799c-6.882-4.334-11.711-12.656-9.522-20.892c3.752-10.512,17.56-9.471,25.313-4.616
	c12.759,7.899,23.616,18.756,31.516,31.516C91.874,152.23,92.912,166.035,82.402,169.789z M121.655,151.787
	c-8.232,2.293-16.529-2.582-20.338-9.848c-10.829-18.934-24.342-32.45-43.277-43.277c-7.264-3.812-12.141-12.105-9.848-20.339
	c3.589-9.663,15.51-10.548,23.581-6.334c24.502,13.739,42.478,31.716,56.217,56.218
	C132.202,136.279,131.319,148.197,121.655,151.787z M161.228,133.232c-8.227,2.313-16.496-2.572-20.015-10.025
	c-14.724-28.955-35.488-49.719-64.442-64.441c-7.452-3.52-12.339-11.789-10.026-20.016c3.354-9.299,14.509-11,22.625-7.213
	c35.367,17.648,61.424,43.703,79.07,79.07C172.227,118.725,170.526,129.877,161.228,133.232z"/>
</svg>
